# xmcd
#
# Track frame offsets:
#       150
#       11172
#       20177
#       33502
#       43987
#       61665
#       73577
#       84317
#       94080
#       110800
#       125052
#       137110
#
# Disc length: 1978 seconds
#
# Revision: 1
# Processed by: cddbd v1.5.2PL0 Copyright (c) Steve Scherf et al.
# Submitted via: FreeDbEdit v0.1
#
DISCID=ad07b80c
DTITLE=Various Artist - A Country Christmas
DYEAR=1900
DGENRE=
TTITLE0=Skeeter Davis - Rudolph, The Red Nosed Rei
TTITLE1=Donna Fargo - Rockin' Around the Christmas
TTITLE2=Joe Stampley - Please Come Home for Chris
TTITLE3=Eddie Raven - Silent Night
TTITLE4=Jeannie C Riley - Joy to the World
TTITLE5=Donna Fargo - Jingle Bells
TTITLE6=Jeannie C Riley - Away in a Manger
TTITLE7=Joe Stampley - Jingle Bell Rock
TTITLE8=Jack Greene - O Come All Ye Faithful
TTITLE9=Joe Stampley - White Christmas
TTITLE10=Jack Greene - Hark the Herald Angels Sing
TTITLE11=Skeeter Davis - Santa Claus Is Coming to T
EXTD=
EXTT0=
EXTT1=
EXTT2=
EXTT3=
EXTT4=
EXTT5=
EXTT6=
EXTT7=
EXTT8=
EXTT9=
EXTT10=
EXTT11=
PLAYORDER=
